<?xml version="1.0" standalone="no"?>
<!DOCTYPE svg PUBLIC "-//W3C//DTD SVG 20010904//EN"
 "http://www.w3.org/TR/2001/REC-SVG-20010904/DTD/svg10.dtd">
<svg version="1.0" xmlns="http://www.w3.org/2000/svg"
 width="700.000000pt" height="700.000000pt" viewBox="0 0 700.000000 700.000000"
 preserveAspectRatio="xMidYMid meet">
<metadata>
Created by potrace 1.11, written by Peter Selinger 2001-2013
</metadata>
<g transform="translate(0.000000,700.000000) scale(0.100000,-0.100000)"
fill="#000000" stroke="none">
<path d="M380 6986 c-169 -48 -315 -190 -364 -356 -14 -49 -16 -346 -16 -3130
0 -2784 2 -3081 16 -3130 50 -169 197 -310 369 -356 74 -20 6156 -20 6230 0
172 46 319 187 369 356 14 49 16 346 16 3130 0 2784 -2 3081 -16 3130 -50 169
-197 310 -369 356 -72 20 -6166 19 -6235 0z m865 -600 c371 -187 654 -454 872
-820 85 -143 201 -379 243 -495 l32 -91 80 0 c44 0 137 -7 206 -16 469 -57
873 -232 1042 -451 25 -32 68 -83 97 -113 68 -74 77 -109 69 -276 -11 -206
-35 -282 -100 -309 -73 -31 -371 -39 -1261 -37 -526 1 -904 6 -955 13 -198 24
-301 123 -317 303 -3 45 -1 100 6 138 14 69 71 220 125 327 l35 68 -136 129
c-362 342 -628 764 -768 1214 -45 145 -47 155 -35 202 16 57 46 94 98 119 64
31 117 22 248 -44 266 -134 542 -357 728 -587 145 -180 289 -430 357 -621 17
-49 37 -89 43 -89 6 0 61 7 121 15 61 8 134 15 163 15 40 0 52 3 52 16 0 8
-21 66 -46 127 -202 496 -582 905 -1065 1147 -123 62 -191 74 -250 42 l-37
-19 12 34 c15 44 70 101 110 113 58 18 116 4 231 -54z m5543 -2048 c22 -18 46
-79 72 -183 40 -156 31 -165 -211 -233 -101 -28 -193 -52 -203 -54 -17 -3 -26
21 -73 186 -29 104 -51 191 -49 193 2 2 89 29 192 58 190 55 238 60 272 33z
m-462 -306 c23 -81 41 -148 40 -149 -2 -3 -1802 -505 -1816 -507 -9 -1 -20 16
-30 44 -22 67 -71 147 -130 214 l-52 60 21 17 c12 10 45 24 74 32 129 36 1843
444 1847 440 3 -3 24 -71 46 -151z m-2080 -319 c56 -30 179 -157 212 -218 l27
-50 0 -230 c0 -212 -2 -233 -21 -275 -26 -58 -76 -108 -134 -134 -45 -21 -47
-21 -1590 -24 -1706 -3 -1611 -6 -1686 60 -77 68 -86 95 -97 278 -19 327 27
495 154 565 l54 30 1263 7 c695 3 1267 9 1270 13 4 3 119 5 257 3 235 -3 252
-4 291 -25z m-3055 -1004 c11 -5 24 -21 29 -35 11 -29 40 -32 40 -5 0 33 38
51 105 51 64 0 105 -22 105 -55 0 -8 7 -15 15 -15 8 0 15 6 15 14 0 30 50 56
107 56 64 0 90 -12 103 -46 11 -29 40 -32 40 -5 0 33 38 51 105 51 64 0 105
-22 105 -55 0 -8 7 -15 15 -15 8 0 15 6 15 14 0 30 50 56 107 56 64 0 90 -12
103 -46 11 -29 40 -32 40 -5 0 33 38 51 105 51 64 0 105 -22 105 -55 0 -8 7
-15 15 -15 8 0 15 6 15 14 0 30 50 56 107 56 64 0 90 -12 103 -46 11 -29 40
-32 40 -5 0 33 38 51 105 51 64 0 105 -22 105 -55 0 -8 7 -15 15 -15 8 0 15 6
15 14 0 30 50 56 107 56 64 0 90 -12 103 -46 11 -29 40 -32 40 -5 0 33 38 51
105 51 64 0 105 -22 105 -55 0 -8 7 -15 15 -15 8 0 15 6 15 14 0 30 50 56 107
56 64 0 90 -12 103 -46 11 -29 40 -32 40 -5 0 33 38 51 105 51 64 0 105 -22
105 -55 0 -8 7 -15 15 -15 8 0 15 6 15 14 0 30 50 56 107 56 64 0 90 -12 103
-46 11 -29 40 -32 40 -5 0 33 38 51 105 51 64 0 105 -22 105 -55 0 -8 7 -15
15 -15 8 0 15 6 15 14 0 30 50 56 107 56 64 0 90 -12 103 -46 12 -31 36 -31
44 -1 8 34 45 47 113 40 61 -6 93 -24 93 -54 0 -27 23 -28 43 -2 43 55 197 2
197 -68 0 -26 18 -33 36 -15 24 24 69 19 123 -15 53 -32 66 -53 56 -92 -7 -28
10 -46 28 -28 20 20 62 12 100 -20 51 -42 70 -80 57 -114 -16 -41 -13 -46 28
-40 43 6 55 -2 95 -62 30 -47 35 -94 12 -113 -27 -22 -18 -40 20 -40 41 0 57
-20 80 -98 17 -55 11 -82 -22 -100 -21 -12 -10 -42 16 -42 32 0 51 -38 51
-101 0 -72 -6 -86 -41 -105 -35 -18 -36 -27 -4 -42 32 -15 40 -51 26 -120 -12
-60 -30 -82 -68 -82 -28 0 -30 -20 -3 -43 27 -23 25 -63 -7 -128 -26 -49 -31
-54 -67 -59 -43 -6 -55 -20 -31 -40 23 -19 18 -50 -17 -102 -41 -60 -69 -76
-108 -61 -34 13 -42 2 -29 -35 12 -31 -5 -61 -59 -106 -48 -40 -67 -44 -100
-20 -28 19 -41 11 -40 -26 1 -38 -14 -56 -74 -86 -58 -29 -82 -30 -108 -4 -25
25 -40 26 -40 1 0 -33 -33 -61 -92 -76 -64 -17 -107 -8 -115 25 -6 24 -43 27
-43 3 0 -37 -30 -53 -102 -53 -55 0 -72 4 -88 20 -11 11 -20 27 -20 35 0 25
-24 16 -45 -18 -20 -31 -22 -32 -95 -32 -73 0 -75 1 -95 32 -21 34 -45 43 -45
18 0 -35 -37 -55 -105 -55 -68 0 -105 20 -105 55 0 25 -24 16 -45 -18 -20 -31
-22 -32 -95 -32 -73 0 -75 1 -95 32 -21 34 -45 43 -45 18 0 -35 -37 -55 -105
-55 -68 0 -105 20 -105 55 0 25 -24 16 -45 -18 -20 -31 -22 -32 -95 -32 -73 0
-75 1 -95 32 -21 34 -45 43 -45 18 0 -35 -37 -55 -105 -55 -68 0 -105 20 -105
55 0 25 -24 16 -45 -18 -20 -31 -22 -32 -95 -32 -73 0 -75 1 -95 32 -21 34
-45 43 -45 18 0 -35 -37 -55 -105 -55 -68 0 -105 20 -105 55 0 25 -24 16 -45
-18 -20 -31 -22 -32 -95 -32 -73 0 -75 1 -95 32 -21 34 -45 43 -45 18 0 -35
-37 -55 -105 -55 -68 0 -105 20 -105 55 0 25 -24 16 -45 -18 -20 -31 -22 -32
-95 -32 -73 0 -75 1 -95 32 -21 34 -45 43 -45 18 0 -35 -37 -55 -105 -55 -68
0 -105 20 -105 55 0 25 -24 16 -45 -18 -20 -31 -22 -32 -95 -32 -73 0 -75 1
-95 32 -21 34 -45 43 -45 18 0 -35 -37 -55 -105 -55 -68 0 -105 20 -105 55 0
24 -22 17 -50 -16 l-26 -32 -63 11 c-70 13 -101 33 -101 67 0 30 -23 38 -43
14 -24 -27 -73 -24 -132 9 -45 24 -51 31 -55 67 -5 43 -11 46 -53 25 -33 -16
-56 -6 -119 52 -40 37 -42 41 -27 98 3 10 -2 14 -16 11 -58 -10 -78 -4 -111
35 -51 60 -60 88 -39 120 20 31 12 41 -35 46 -30 3 -39 9 -62 53 -33 59 -36
108 -9 132 24 20 16 43 -14 43 -34 0 -52 23 -65 85 -13 64 -7 90 26 111 28 19
32 44 7 44 -37 0 -53 30 -53 99 0 72 17 111 50 111 31 0 33 19 6 45 -30 28
-32 43 -12 109 18 60 41 86 78 86 31 0 38 20 13 40 -24 20 -18 65 16 119 31
52 55 67 89 56 32 -10 42 3 25 35 -20 38 -9 65 50 119 36 33 51 41 68 36 53
-17 62 -13 58 28 -3 46 6 58 74 97 43 25 58 28 78 21 14 -5 28 -14 31 -20 9
-14 36 -2 30 13 -12 32 15 64 71 85 74 28 99 27 124 -6 24 -29 26 -28 49 19
13 25 25 34 52 39 57 10 100 10 121 -2z"/>
<path d="M2914 4776 c-17 -8 -44 -31 -60 -52 -24 -31 -29 -47 -29 -94 0 -47 5
-63 29 -94 91 -120 286 -58 286 92 0 117 -118 195 -226 148z"/>
<path d="M1223 2005 c-156 -48 -262 -186 -271 -350 -9 -176 75 -310 243 -387
41 -19 67 -23 145 -23 85 0 102 3 160 31 245 116 306 429 122 627 -38 40 -111
85 -168 102 -60 18 -174 18 -231 0z"/>
<path d="M2789 2006 c-71 -27 -117 -56 -161 -100 -156 -159 -150 -409 14 -561
154 -143 392 -139 539 9 192 193 135 513 -111 630 -56 27 -78 31 -155 33 -57
2 -103 -2 -126 -11z"/>
<path d="M4359 2006 c-154 -59 -243 -162 -271 -316 -22 -115 22 -246 111 -335
225 -227 609 -99 661 219 19 119 -21 239 -112 333 -74 76 -149 107 -263 110
-57 2 -103 -2 -126 -11z"/>
</g>
</svg>
