<?xml version="1.0" standalone="no"?>
<!DOCTYPE svg PUBLIC "-//W3C//DTD SVG 20010904//EN"
 "http://www.w3.org/TR/2001/REC-SVG-20010904/DTD/svg10.dtd">
<svg version="1.0" xmlns="http://www.w3.org/2000/svg"
 width="512.000000pt" height="512.000000pt" viewBox="0 0 512.000000 512.000000"
 preserveAspectRatio="xMidYMid meet">
<metadata>
Created by potrace 1.14, written by Peter Selinger 2001-2017
</metadata>
<g transform="translate(0.000000,512.000000) scale(0.100000,-0.100000)"
fill="#000000" stroke="none">
<path d="M300 5109 c-115 -23 -227 -116 -272 -227 l-23 -57 0 -2265 0 -2265
24 -60 c33 -82 124 -173 206 -206 l60 -24 2265 0 2265 0 60 24 c82 33 173 124
206 206 l24 60 0 2265 0 2265 -24 60 c-33 82 -124 173 -206 206 l-60 24 -2240
1 c-1256 1 -2260 -2 -2285 -7z m614 -434 c175 -88 366 -235 472 -363 120 -145
254 -372 325 -552 l43 -110 51 0 c209 0 478 -65 674 -162 129 -64 185 -110
316 -263 l50 -58 0 -116 c0 -64 -4 -137 -8 -163 -10 -59 -46 -104 -89 -112
-84 -15 -648 -24 -1123 -18 -511 8 -521 8 -570 30 -65 30 -93 56 -121 117 -46
98 -26 232 61 405 l35 70 -129 127 c-187 187 -324 378 -432 609 -57 120 -129
325 -129 367 0 43 28 94 65 117 54 33 99 26 213 -32 356 -184 643 -506 783
-876 l24 -64 50 6 c28 3 83 9 123 13 84 7 82 -4 25 131 -144 339 -424 633
-763 803 -88 44 -154 54 -186 28 -23 -19 -29 -2 -11 36 9 19 31 44 49 55 52
32 101 26 202 -25z m4061 -1504 c16 -19 64 -168 65 -203 0 -9 -10 -29 -22 -43
-18 -20 -54 -34 -167 -66 -79 -22 -147 -37 -151 -32 -12 12 -81 264 -77 276 5
15 250 85 298 86 24 1 42 -6 54 -18z m-361 -153 c36 -128 49 -178 45 -182 -2
-2 -305 -88 -673 -190 -682 -191 -685 -191 -686 -148 0 25 -49 108 -91 156
l-43 49 22 17 c12 10 54 25 94 34 40 9 350 83 688 165 338 82 618 150 622 150
4 1 13 -23 22 -51z m-1509 -297 c44 -20 132 -108 161 -162 17 -30 19 -57 19
-210 l0 -176 -30 -48 c-20 -32 -45 -56 -74 -72 l-44 -23 -1147 0 -1147 0 -44
23 c-29 16 -54 40 -74 72 -29 46 -30 54 -34 184 -6 227 29 340 119 391 l45 25
830 5 c457 3 954 6 1105 7 248 2 279 1 315 -16z m-2210 -757 l10 -21 19 24
c16 21 24 24 79 21 54 -3 63 -6 74 -28 7 -14 13 -20 13 -13 0 28 32 43 90 43
54 0 61 -3 73 -26 l13 -25 12 25 c11 24 16 26 77 26 61 0 66 -2 77 -26 l12
-25 13 25 c13 24 19 26 79 26 59 0 65 -2 76 -26 l12 -25 13 25 c12 23 19 26
73 26 58 0 90 -15 90 -43 0 -7 6 -1 13 13 11 22 20 25 74 28 55 3 63 0 79 -21
l19 -24 10 21 c9 17 21 22 72 24 57 3 63 1 79 -23 l17 -26 11 23 c10 20 20 23
73 26 54 3 63 0 77 -20 l16 -22 16 22 c13 18 25 22 74 22 49 0 61 -4 74 -22
l16 -22 16 22 c13 18 25 22 74 22 49 0 61 -4 74 -22 l16 -22 16 22 c13 18 25
22 74 22 49 0 61 -4 74 -22 l16 -22 16 22 c14 20 23 23 77 20 51 -2 63 -7 72
-24 l10 -21 19 24 c16 21 24 24 79 21 53 -3 63 -6 73 -27 12 -23 12 -23 19 -2
8 25 35 33 100 29 39 -2 52 -8 60 -24 l10 -21 18 23 c34 46 157 26 157 -24 0
-12 5 -10 20 6 25 27 52 27 108 2 33 -15 42 -24 42 -45 0 -25 14 -34 25 -15
10 17 56 11 91 -11 39 -24 57 -51 48 -73 -5 -13 -1 -15 26 -10 27 6 37 2 71
-32 35 -34 40 -43 35 -72 -4 -28 -2 -33 11 -28 28 11 52 -4 80 -51 22 -39 25
-50 16 -73 -10 -26 -8 -29 13 -34 25 -7 47 -42 58 -93 6 -25 3 -36 -13 -52
-26 -26 -26 -31 -2 -31 27 0 38 -18 44 -75 4 -44 2 -52 -22 -74 l-27 -24 23
-23 c18 -18 21 -29 16 -61 -7 -51 -29 -83 -55 -83 -20 0 -20 -1 -3 -20 35 -39
-4 -140 -58 -150 -21 -4 -24 -8 -17 -20 17 -26 11 -51 -22 -92 -27 -34 -36
-39 -63 -36 -31 3 -32 2 -31 -31 1 -29 -5 -39 -43 -68 -24 -19 -50 -32 -57
-29 -8 4 -21 9 -29 12 -11 5 -15 -1 -15 -25 0 -24 -7 -34 -30 -46 -59 -31 -76
-34 -103 -20 -23 12 -26 11 -36 -11 -20 -46 -115 -60 -149 -24 -19 20 -19 20
-30 -5 -11 -23 -17 -25 -76 -25 -61 0 -66 2 -80 28 -8 15 -15 22 -16 15 -1
-27 -32 -43 -83 -43 -57 0 -68 5 -85 35 -6 11 -12 15 -12 8 -1 -59 -168 -59
-170 0 -1 7 -8 0 -16 -15 -13 -26 -20 -28 -74 -28 -50 0 -61 3 -78 25 l-19 24
-11 -24 c-10 -23 -18 -25 -71 -25 -51 0 -63 3 -78 24 l-18 23 -10 -21 c-9 -17
-21 -22 -72 -24 -57 -3 -63 -1 -79 23 l-17 26 -11 -23 c-10 -20 -20 -23 -73
-26 -57 -3 -63 -1 -79 23 l-17 26 -11 -23 c-10 -20 -20 -23 -73 -26 -57 -3
-63 -1 -79 23 l-17 26 -11 -23 c-10 -20 -19 -23 -76 -23 -57 0 -66 3 -76 23
l-11 23 -17 -26 c-16 -24 -22 -26 -79 -23 -53 3 -63 6 -73 26 l-11 23 -17 -26
c-16 -24 -22 -26 -79 -23 -53 3 -63 6 -73 26 l-11 23 -17 -26 c-16 -24 -22
-26 -79 -23 -51 2 -63 7 -72 24 l-10 21 -18 -23 c-15 -21 -27 -24 -77 -24 -54
0 -61 2 -74 28 -8 15 -15 22 -16 15 -1 -28 -32 -43 -90 -43 -54 0 -61 2 -74
28 -8 15 -15 22 -16 15 -2 -58 -170 -59 -170 -1 0 6 -8 0 -18 -13 -33 -40
-143 -19 -150 29 -4 26 -10 27 -34 5 -16 -15 -23 -15 -56 -4 -64 23 -82 38
-82 73 0 25 -3 29 -12 20 -35 -35 -138 23 -138 78 0 25 -3 29 -30 28 -23 -1
-38 7 -60 33 -37 43 -44 63 -31 88 14 25 14 34 1 26 -20 -12 -51 7 -70 45 -24
48 -25 78 -3 102 15 17 15 18 -4 18 -31 0 -51 30 -58 86 -7 46 -5 53 16 67
l23 16 -27 21 c-23 18 -27 29 -27 71 0 48 23 89 50 89 6 0 1 12 -10 28 -17 23
-18 32 -9 67 13 48 35 75 61 75 19 0 24 15 8 25 -16 10 -11 48 11 85 25 41 36
50 65 50 17 0 20 5 16 31 -4 25 2 38 34 70 35 36 43 39 72 34 24 -4 32 -3 27
5 -14 23 6 56 51 84 45 29 48 29 75 14 27 -16 28 -16 31 10 2 19 13 32 38 44
62 30 87 32 106 9 18 -20 18 -20 36 10 18 29 21 30 80 27 52 -2 64 -7 73 -24z"/>
<path d="M2128 3485 c-92 -52 -66 -198 37 -206 49 -4 69 3 96 32 62 66 23 175
-66 185 -25 3 -50 -1 -67 -11z"/>
<path d="M883 1457 c-144 -55 -217 -213 -167 -359 20 -61 75 -123 138 -155 69
-36 180 -38 243 -5 62 33 105 74 133 129 34 66 35 188 2 250 -27 52 -81 106
-130 129 -45 22 -173 29 -219 11z"/>
<path d="M2005 1446 c-175 -83 -214 -312 -77 -451 106 -108 288 -109 394 -2
138 137 98 370 -77 453 -38 18 -67 24 -120 24 -53 0 -82 -6 -120 -24z"/>
<path d="M3155 1446 c-211 -98 -218 -400 -11 -501 110 -54 223 -40 311 37 150
132 120 374 -57 462 -71 35 -171 36 -243 2z"/>
</g>
</svg>
